<?xml version="1.0" encoding="utf-8"?>
<!-- Generator: Adobe Illustrator 18.0.0, SVG Export Plug-In . SVG Version: 6.00 Build 0)  -->
<!DOCTYPE svg PUBLIC "-//W3C//DTD SVG 1.1//EN" "http://www.w3.org/Graphics/SVG/1.1/DTD/svg11.dtd">
<svg version="1.1" id="Layer_1" xmlns="http://www.w3.org/2000/svg" xmlns:xlink="http://www.w3.org/1999/xlink" x="0px" y="0px"
	 viewBox="0 90 612 612" enable-background="new 0 90 612 612" xml:space="preserve">
<path fill="#00334E" d="M415.4,146.1c-18.1-14.8-30.7-11.3-48.2,21c-11.9,21-30.7,23.9-42.6,23.3v-3.9c13.6-6.8,22.7-20.4,22.7-36.4
	c0.6-22.7-17.5-40.9-40.3-40.9c-22.7,0-40.9,18.1-40.9,40.9c0,15.9,9.7,29.5,22.7,36.4v4.5c-11.3,0.6-30.7-1.7-42.6-23.3
	c-18.1-31.7-30.7-35.2-48.2-21c-17.7,14.2-88.6,99.3-175,91.4c0,0,17.1,39.1,64.2,30.1c0,0,24.9,26.1,65.3,8c0,0,21,18.7,54.5,1.7
	c0,0,24.9,19.3,51.7,2.9c0,0,14.8,10.7,31.7,8l1.2,97.6c-1.7-0.6-3.5-0.6-5.7-1.2c0,0-29-6.2-59.6-14.8c-29.5-8-61.9-20.4-66.4-26.7
	l1.7-1.2c2.9-1.2,6.8-2.9,12.5-3.9c10.7-2.3,25.5-3.5,40.3-3.9c29.5-1.2,34.6,0,35.2,0.6c0-1.2,17.1,2.3,21.6-15.4
	c0,0,0.6-1.2,0-1.2c-1.2-11.9-10.3-12.5-17.5-13.6c-11.9-1.7-5.7-1.2-22.2-0.6c-26.7,2.3-109.5-4.5-119.8,38.5v2.9
	c3.5,38.1,81.7,54.5,138.5,65.9c-19.3,13-29.5,30.7-33.5,52.7c-1.7,23.9,17.1,45.9,60.7,71.6c-32.9,23.3-55.1,45.5-53.3,72.1
	c2.9,21.6,22.2,50.6,60.1,69.3c0,0-26.1-40.3-28.4-62.4c-1.7-13,5.7-31.7,37.5-54.5l1.2,80.6c0,6.8,5.7,12.5,11.9,12.5
	c6.8,0,11.9-5.7,11.9-12.5l1.2-78.4c29.5,22.2,36.4,40.3,34.6,52.7c-1.7,22.2-28.4,62.4-28.4,62.4c37.5-18.1,56.8-47.1,60.1-69.3
	c1.7-26.7-19.9-48.8-53.3-72.1c43.7-24.9,62.4-47.7,60.7-71.6c-3.9-22.2-14.2-39.1-33.5-52.7c56.8-11.3,135.2-27.8,138.5-65.9v-2.9
	c-10.3-43.7-93.1-36.9-119.8-38.5c-16.5,0-10.3-0.6-22.2,0.6c-7.4,1.2-16.5,1.7-17.5,13.6c-0.6,0.6,0,1.2,0,1.2
	c4.5,17.1,21.6,14.2,21.6,15.4c0.6,0,5.7-1.2,35.2-0.6c14.8,0.6,29.5,1.7,40.3,3.9c5.1,1.2,9.7,2.3,12.5,3.9
	c1.2,0.6,1.7,0.6,1.7,1.2c-4.5,6.2-36.9,19.3-66.4,26.7c-30.7,8.5-59.6,14.8-59.6,14.8c-0.6,0-1.2,0.6-2.3,0.6l1.2-97.1
	c17.1,2.9,31.7-8,31.7-8c26.7,16.5,51.7-2.9,51.7-2.9c33.5,17.1,54.5-1.7,54.5-1.7c40.3,18.1,65.3-8,65.3-8
	c46.5,8.5,64.2-30.1,64.2-30.1C504.5,246,433.5,160.9,415.4,146.1L415.4,146.1z M268.9,493.5c-10.7-6.8-15.9-15.9-14.8-22.2
	c0.6-8.5-2.3-29,38.1-43.7l1.2,80.6C284.8,503.8,276.9,498.6,268.9,493.5L268.9,493.5z M356.3,471.4c1.2,6.2-3.9,15.4-14.8,22.2
	c-6.8,4.5-14.2,9.1-21,13l1.2-77.8C358.6,444.1,355.7,463.4,356.3,471.4L356.3,471.4z"/>
</svg>
